<svg id="Ebene_1" data-name="Ebene 1" xmlns="http://www.w3.org/2000/svg" viewBox="0 0 80 80">
  <defs>
    <style>
      .cls-1 {
        fill: #303030;
        fill-rule: evenodd;
      }
    </style>
  </defs>
  <title>icon</title>
  <path class="cls-1" d="M20,72.5a3.75,3.75,0,0,0-3.76,3.75h0A3.75,3.75,0,0,0,20,80h0a3.75,3.75,0,1,0,0-7.5Zm20,0a3.76,3.76,0,0,0-3.76,3.75h0A3.76,3.76,0,0,0,40,80h0a3.75,3.75,0,1,0,0-7.5Zm20,0a3.77,3.77,0,0,0-3.76,3.75h0A3.77,3.77,0,0,0,60,80h0a3.75,3.75,0,1,0,0-7.5Zm-1.25-30A2.53,2.53,0,0,1,56.28,45H23.72a2.53,2.53,0,0,1-2.51-2.5V40a2.53,2.53,0,0,1,2.51-2.5H56.28A2.53,2.53,0,0,1,58.79,40ZM26.22,2.5H53.78A2.52,2.52,0,0,1,56.28,5l-2.5,30H26.22L23.72,5a2.52,2.52,0,0,1,2.5-2.5ZM61.29,25v2.5H63.8V40a5,5,0,0,1-3,4.56,4.76,4.76,0,0,0,.46-2.06V40a5,5,0,0,0-5-5L58.79,5a5,5,0,0,0-5-5H26.22a5,5,0,0,0-5,5l2.51,30a5.05,5.05,0,0,0-5,5v2.5a4.94,4.94,0,0,0,.47,2.06,5,5,0,0,1-3-4.56V27.5h2.51V25H11.19v2.5h2.5V40a7.51,7.51,0,0,0,7.52,7.5h15l1.25,5h1.26v8.77C28,61.45,18.7,64,18.7,70h2.51c0-4,8.05-6.06,17.54-6.23V70h2.5V63.77C50.74,63.94,58.79,66,58.79,70H61.3c0-6-9.3-8.55-20-8.73V52.5H42.5l1.26-5h15A7.51,7.51,0,0,0,66.31,40V27.5h2.5V25Z"/>
</svg>
