<svg id="Ebene_1" data-name="Ebene 1" xmlns="http://www.w3.org/2000/svg" viewBox="0 0 80 80">
  <defs>
    <style>
      .cls-1 {
        fill: #303030;
        fill-rule: evenodd;
      }
    </style>
  </defs>
  <title>icon</title>
  <g>
    <path class="cls-1" d="M73.46,54.53a9.33,9.33,0,0,1-4.15,7.18L44.14,76.24a9.41,9.41,0,0,1-8.28,0L10.69,61.71a9.33,9.33,0,0,1-4.15-7.18V25.47a9.31,9.31,0,0,1,4.15-7.18L35.86,3.76a9.41,9.41,0,0,1,8.28,0L69.31,18.29a9.31,9.31,0,0,1,4.15,7.18ZM70.71,15.87,45.54,1.34A11.3,11.3,0,0,0,40,0a11.3,11.3,0,0,0-5.54,1.34L9.29,15.87a12.07,12.07,0,0,0-5.54,9.6V54.53a12.07,12.07,0,0,0,5.54,9.6L34.46,78.66A11.3,11.3,0,0,0,40,80a11.3,11.3,0,0,0,5.54-1.34L70.71,64.13a12.07,12.07,0,0,0,5.54-9.6V25.47A12.07,12.07,0,0,0,70.71,15.87Z"/>
    <path class="cls-1" d="M39.71,12.54a8.81,8.81,0,0,1,8.8,8.8c0,5.12-4.26,13.6-8.8,13.6s-8.8-8.48-8.8-13.6a8.81,8.81,0,0,1,8.8-8.8m0,25.19c6.81,0,11.6-10.63,11.6-16.39a11.6,11.6,0,0,0-23.19,0c0,5.76,4.78,16.39,11.59,16.39m.8,2.24C28.3,40,18.37,49.26,18.37,60.68a1.4,1.4,0,0,0,2.8,0h0c0-9.88,8.67-17.92,19.34-17.92s19.34,8,19.34,17.92a1.4,1.4,0,0,0,2.8,0C62.65,49.26,52.72,40,40.51,40"/>
  </g>
</svg>
