<svg id="Ebene_1" data-name="Ebene 1" xmlns="http://www.w3.org/2000/svg" viewBox="0 0 80 80">
  <defs>
    <style>
      .cls-1 {
        fill: #303030;
        fill-rule: evenodd;
      }
    </style>
  </defs>
  <title>icon</title>
  <path class="cls-1" d="M59.32,77.24H29V74.48H59.32ZM48.85,8.79c3-3,11.83-.78,20.44,6.9L55.75,29.23C48.07,20.62,45.86,11.79,48.85,8.79ZM44.14,67.58a4.53,4.53,0,0,0-.74.07L14.74,39a4.18,4.18,0,0,0,.41-1.77,4.23,4.23,0,0,0-.41-1.78L42.36,7.81a4.22,4.22,0,0,0,1.78.41,4,4,0,0,0,2.13-.61c-3.8,5.24.19,16.36,9.42,25.58L73.13,15.63C63.9,6.4,52.91,2.4,47.68,6.21a4.1,4.1,0,0,0,.6-2.13,4.14,4.14,0,0,0-8.28,0,4.18,4.18,0,0,0,.41,1.77L12.79,33.48A4.07,4.07,0,0,0,11,33.07a4.14,4.14,0,1,0,0,8.28,4.09,4.09,0,0,0,1.78-.42L41,69.1a4.11,4.11,0,0,0-1,2.62H26.2V80H62.09V71.72H48.28a4.14,4.14,0,0,0-4.14-4.14Z"/>
</svg>
