<?xml version="1.0" encoding="utf-8"?>
<!-- Generator: Adobe Illustrator 23.1.1, SVG Export Plug-In . SVG Version: 6.00 Build 0)  -->
<svg version="1.1" id="Ebene_1" xmlns="http://www.w3.org/2000/svg" xmlns:xlink="http://www.w3.org/1999/xlink" x="0px" y="0px"
	 viewBox="0 0 197 80" style="enable-background:new 0 0 197 80;" xml:space="preserve">
<style type="text/css">
	.st0{fill:#0D90FF;}
	.st1{fill:#303030;}
</style>
<g>
	<path class="st0" d="M0,0v80h80V0H0z M28.6,39.4c-2.3,3.4-5.7,5-10,5c-4.4,0-7.7-1.7-10.1-5C6.2,36,5,31.2,5,24.9
		c0-6.2,1.2-11,3.5-14.4c2.3-3.3,5.7-5,10.1-5c4.3,0,7.7,1.7,10,5c2.3,3.3,3.5,8.1,3.5,14.4C32.1,31.2,31,36,28.6,39.4z M52.2,41.6
		c-1.8,1.9-4.3,2.8-7.7,2.8c-3.3,0-6.1-0.6-8.4-1.9v-6.9c2.8,1.8,5.4,2.8,7.8,2.8c1.3,0,2.3-0.4,3-1.1c0.7-0.7,1-1.7,1-3
		c0-1.3-0.4-2.4-1.2-3.4c-0.8-1-2.1-2.2-4-3.5C41.1,26.1,39.8,25,39,24c-0.8-1-1.5-2.2-1.9-3.4c-0.5-1.3-0.7-2.8-0.7-4.4
		c0-3.2,0.9-5.8,2.7-7.7c1.8-1.9,4.2-2.8,7.2-2.8c2.9,0,5.7,0.8,8.3,2.4l-2.3,5.6c-0.8-0.5-1.7-0.9-2.6-1.3
		c-0.9-0.4-1.9-0.6-2.9-0.6c-1.1,0-2,0.4-2.6,1.1c-0.6,0.7-0.9,1.8-0.9,3.1c0,1.3,0.4,2.4,1.1,3.3c0.7,0.9,2,2,3.8,3.2
		c2.5,1.7,4.2,3.3,5.1,5.1c1,1.7,1.5,3.7,1.5,5.9C54.8,37,53.9,39.7,52.2,41.6z M25,25c0,8.8-2.1,13.2-6.3,13.2
		c-2.1,0-3.7-1.1-4.8-3.4c-1.1-2.3-1.6-5.5-1.6-9.8c0-4.3,0.5-7.6,1.6-9.8c1.1-2.2,2.7-3.4,4.8-3.4C22.9,11.8,25,16.2,25,25z"/>
	<g>
		<path class="st1" d="M120.2,17.4c0,5-0.7,8.9-2.2,11.5c-1.5,2.7-3.7,4-6.5,4c-2.9,0-5-1.4-6.5-4.1c-1.5-2.7-2.2-6.6-2.2-11.6
			c0-5.2,0.7-9.1,2.2-11.7c1.5-2.6,3.7-3.8,6.6-3.8c2.8,0,5,1.3,6.4,4S120.2,12.4,120.2,17.4z M104.9,17.4c0,4.5,0.6,7.9,1.7,10.2
			c1.1,2.3,2.8,3.4,4.9,3.4c2.2,0,3.8-1.1,4.9-3.4c1.1-2.3,1.7-5.7,1.7-10.2c0-4.5-0.6-7.9-1.7-10.2c-1.1-2.3-2.7-3.4-4.9-3.4
			c-2.2,0-3.9,1.2-5,3.5C105.4,9.6,104.9,12.9,104.9,17.4z"/>
		<path class="st1" d="M127.8,32.5h-2V2.3h11v1.9h-9V17h8.5v2h-8.5V32.5z"/>
		<path class="st1" d="M142.9,32.5h-2V2.3h11v1.9h-9V17h8.5v2h-8.5V32.5z"/>
		<path class="st1" d="M156,32.5V2.3h2v30.3H156z"/>
		<path class="st1" d="M173.2,3.7c-2.3,0-4.1,1.2-5.4,3.6c-1.3,2.4-2,5.7-2,10c0,2.8,0.3,5.2,0.9,7.2c0.6,2.1,1.5,3.6,2.7,4.7
			c1.2,1.1,2.5,1.7,4,1.7c1.6,0,2.9-0.3,4.1-0.8V32c-1.1,0.6-2.5,0.9-4.2,0.9c-1.9,0-3.6-0.6-5-1.9c-1.4-1.2-2.6-3-3.3-5.4
			c-0.8-2.4-1.2-5.1-1.2-8.4c0-4.8,0.9-8.6,2.6-11.4c1.7-2.8,4.1-4.1,7-4.1c1.8,0,3.5,0.4,4.8,1.3l-0.9,1.8
			C176,4.1,174.6,3.7,173.2,3.7z"/>
		<path class="st1" d="M193.4,32.5h-11V2.3h11v1.9h-8.9v11.5h8.4v1.9h-8.4v12.9h8.9V32.5z"/>
		<path class="st1" d="M112,70.7c0,2.5-0.7,4.5-2.1,6c-1.4,1.5-3.1,2.3-5.3,2.3c-2.4,0-4.4-0.4-5.8-1.1v-2.2c0.7,0.4,1.6,0.7,2.7,1
			s2.1,0.4,3.1,0.4c1.5,0,2.8-0.6,3.8-1.8c1-1.2,1.5-2.7,1.5-4.5c0-1.7-0.4-3-1.1-4c-0.7-1-2-2-4-2.9c-1.6-0.8-2.7-1.5-3.5-2.3
			c-0.8-0.7-1.3-1.6-1.7-2.6c-0.4-1-0.6-2.2-0.6-3.5c0-1.5,0.3-2.8,0.9-4c0.6-1.2,1.5-2.1,2.5-2.7c1.1-0.6,2.3-1,3.6-1
			c1.2,0,2.2,0.1,3.2,0.4c1,0.3,1.7,0.5,2.3,0.8l-0.8,1.9c-1.5-0.8-3.1-1.2-4.7-1.2c-1.5,0-2.7,0.5-3.6,1.5c-0.9,1-1.4,2.4-1.4,4
			c0,1.7,0.3,3,1,4c0.7,0.9,2,1.9,4,2.9c2,1,3.5,2.2,4.5,3.5C111.5,67.2,112,68.8,112,70.7z"/>
		<path class="st1" d="M129.8,57.1c0,3.1-0.7,5.4-2.1,6.9c-1.4,1.5-3.5,2.2-6.3,2.2h-2.2v12.5h-2V48.4h4.1c3,0,5.1,0.7,6.5,2.1
			C129.1,51.9,129.8,54.1,129.8,57.1z M119.1,64.3h2c2.4,0,4.1-0.6,5-1.7c1-1.1,1.5-3,1.5-5.5c0-2.4-0.5-4.2-1.5-5.2
			c-1-1.1-2.6-1.6-4.8-1.6h-2.3V64.3z"/>
		<path class="st1" d="M145.9,78.6l-2.7-11h-7.3l-2.6,11h-2.1l7.3-30.3h2.1l7.4,30.3H145.9z M142.8,65.6l-2.7-11.3
			c-0.3-1.3-0.5-2.5-0.6-3.6c-0.1,1.2-0.3,2.4-0.6,3.6l-2.6,11.3H142.8z"/>
		<path class="st1" d="M159.8,49.9c-2.3,0-4.1,1.2-5.4,3.6c-1.3,2.4-2,5.7-2,10c0,2.8,0.3,5.2,0.9,7.2c0.6,2.1,1.5,3.6,2.7,4.7
			c1.2,1.1,2.5,1.7,4,1.7c1.6,0,2.9-0.3,4.1-0.8v1.9c-1.1,0.6-2.5,0.9-4.2,0.9c-1.9,0-3.6-0.6-5-1.9c-1.4-1.2-2.6-3-3.3-5.4
			c-0.8-2.4-1.2-5.1-1.2-8.4c0-4.8,0.9-8.6,2.6-11.4c1.7-2.8,4.1-4.1,7-4.1c1.8,0,3.5,0.4,4.8,1.3l-0.9,1.8
			C162.6,50.2,161.3,49.9,159.8,49.9z"/>
		<path class="st1" d="M180.1,78.6h-11V48.4h11v1.9h-8.9v11.5h8.4v1.9h-8.4v12.9h8.9V78.6z"/>
		<path class="st1" d="M197,70.7c0,2.5-0.7,4.5-2.1,6c-1.4,1.5-3.1,2.3-5.3,2.3c-2.4,0-4.4-0.4-5.8-1.1v-2.2c0.7,0.4,1.6,0.7,2.7,1
			s2.1,0.4,3.1,0.4c1.5,0,2.8-0.6,3.8-1.8c1-1.2,1.5-2.7,1.5-4.5c0-1.7-0.4-3-1.1-4c-0.7-1-2-2-4-2.9c-1.6-0.8-2.7-1.5-3.5-2.3
			c-0.8-0.7-1.3-1.6-1.7-2.6c-0.4-1-0.6-2.2-0.6-3.5c0-1.5,0.3-2.8,0.9-4c0.6-1.2,1.5-2.1,2.5-2.7c1.1-0.6,2.3-1,3.6-1
			c1.2,0,2.2,0.1,3.2,0.4c1,0.3,1.7,0.5,2.3,0.8l-0.8,1.9c-1.5-0.8-3.1-1.2-4.7-1.2c-1.5,0-2.7,0.5-3.6,1.5c-0.9,1-1.4,2.4-1.4,4
			c0,1.7,0.3,3,1,4c0.7,0.9,2,1.9,4,2.9c2,1,3.5,2.2,4.5,3.5C196.5,67.2,197,68.8,197,70.7z"/>
	</g>
</g>
</svg>
